<svg width="332" height="92" viewBox="0 0 332 92" fill="none" xmlns="http://www.w3.org/2000/svg">
<path d="M11.3984 29.75H33.7984V38.01H20.2184V45.92H33.7984V54.11H20.2184V70H11.3984V29.75ZM59.6284 70V53.34L53.0484 49.91L59.6284 46.76V34.58L51.3684 29.75H36.9484V38.01H50.8084V45.92H36.9484V54.11H50.8084V70H59.6284ZM108.812 52.01V44.03L100.552 39.13H89.3516V45.71H99.9216V51.45H89.3516V56.84H100.552L108.812 52.01ZM108.812 60.27H99.6416V62.58H89.3516V70H100.552L108.812 65.17V60.27ZM66.5316 65.17V44.03L74.7916 39.13H85.9216V45.71H75.3516V51.45H85.9216V56.84H75.3516V62.58H85.9216V70H74.7916L66.5316 65.17Z" fill="white"/>
<path d="M121.389 29.75H143.789V37.66H130.209V45.92H143.789V53.9H130.209V61.81H143.789V70H121.389V29.75ZM169.619 65.24V52.99L163.039 49.91L169.619 46.76V34.58L161.709 29.75H147.219V37.66H160.799V45.92H147.219V53.9H160.799V61.81H147.219V70H161.709L169.619 65.24ZM223.249 70H214.499V66.85L203.999 70V62.65H214.499V39.41H223.249V70ZM181.529 65.17L189.439 70H200.779V62.65H190.349V39.41H181.529V65.17ZM244.678 39.2V70.07H235.858V39.2H244.678ZM244.538 36.33H235.858V29.82H244.538V36.33ZM257.287 29.75H266.247V70.07H257.287V29.75ZM320.576 70H301.536V62.65H311.756V45.85H301.256V39.34H311.756V29.68H320.576V70ZM278.856 44.17L286.836 39.34H298.176V45.85H287.396V62.65H297.896V70H286.836L278.856 65.17V44.17Z" fill="black"/>
</svg>
