<svg width="332" height="127" viewBox="0 0 332 127" fill="none" xmlns="http://www.w3.org/2000/svg">
<path d="M164.851 0.483428L165.221 21.1387L268.711 63.899L316.001 63.8989L164.851 0.483428Z" fill="black"/>
<path d="M164.333 0.10638L163.865 20.803L60.1334 63.8989L11.9996 63.8989L164.333 0.10638Z" fill="white"/>
<path d="M11.3984 64.75H33.7984V73.01H20.2184V80.92H33.7984V89.11H20.2184V105H11.3984V64.75ZM59.6284 105V88.34L53.0484 84.91L59.6284 81.76V69.58L51.3684 64.75H36.9484V73.01H50.8084V80.92H36.9484V89.11H50.8084V105H59.6284ZM108.812 87.01V79.03L100.552 74.13H89.3516V80.71H99.9216V86.45H89.3516V91.84H100.552L108.812 87.01ZM108.812 95.27H99.6416V97.58H89.3516V105H100.552L108.812 100.17V95.27ZM66.5316 100.17V79.03L74.7916 74.13H85.9216V80.71H75.3516V86.45H85.9216V91.84H75.3516V97.58H85.9216V105H74.7916L66.5316 100.17Z" fill="white"/>
<path d="M121.389 64.75H143.789V72.66H130.209V80.92H143.789V88.9H130.209V96.81H143.789V105H121.389V64.75ZM169.619 100.24V87.99L163.039 84.91L169.619 81.76V69.58L161.709 64.75H147.219V72.66H160.799V80.92H147.219V88.9H160.799V96.81H147.219V105H161.709L169.619 100.24ZM223.249 105H214.499V101.85L203.999 105V97.65H214.499V74.41H223.249V105ZM181.529 100.17L189.439 105H200.779V97.65H190.349V74.41H181.529V100.17ZM244.678 74.2V105.07H235.858V74.2H244.678ZM244.538 71.33H235.858V64.82H244.538V71.33ZM257.287 64.75H266.247V105.07H257.287V64.75ZM320.576 105H301.536V97.65H311.756V80.85H301.256V74.34H311.756V64.68H320.576V105ZM278.856 79.17L286.836 74.34H298.176V80.85H287.396V97.65H297.896V105H286.836L278.856 100.17V79.17Z" fill="black"/>
</svg>
