<svg width="31" height="30" viewBox="0 0 31 30" fill="none" xmlns="http://www.w3.org/2000/svg">
<g clip-path="url(#clip0_2208_1238)">
<path d="M15.0724 5.15259L13.7216 3.77072C10.5506 0.526966 4.73638 1.64634 2.63751 5.72447C1.65214 7.64259 1.42982 10.412 3.22912 13.9463C4.96247 17.3495 8.5686 21.4257 15.0724 25.8657C21.5763 21.4257 25.1805 17.3495 26.9158 13.9463C28.7151 10.4101 28.4946 7.64259 27.5074 5.72447C25.4085 1.64634 19.5942 0.525091 16.4233 3.76884L15.0724 5.15259ZM15.0724 28.1251C-13.8162 9.12759 6.1777 -5.69991 14.7408 2.14322C14.8539 2.24697 14.9644 2.35384 15.0724 2.46384C15.1786 2.35315 15.2892 2.24681 15.404 2.14509C23.9653 -5.70366 43.961 9.12572 15.0724 28.1251Z" fill="white"/>
</g>
<defs>
<clipPath id="clip0_2208_1238">
<rect width="30.1453" height="30" fill="white"/>
</clipPath>
</defs>
</svg>
