<svg width="35" height="42" viewBox="0 0 35 42" fill="none" xmlns="http://www.w3.org/2000/svg">
<path d="M33 17.25C33 29.5 17.25 40 17.25 40C17.25 40 1.5 29.5 1.5 17.25C1.5 13.0728 3.15937 9.06677 6.11307 6.11307C9.06677 3.15937 13.0728 1.5 17.25 1.5C21.4272 1.5 25.4332 3.15937 28.3869 6.11307C31.3406 9.06677 33 13.0728 33 17.25Z" stroke="#008080" stroke-width="3" stroke-linecap="round" stroke-linejoin="round"/>
<path d="M17.25 22.5C20.1495 22.5 22.5 20.1495 22.5 17.25C22.5 14.3505 20.1495 12 17.25 12C14.3505 12 12 14.3505 12 17.25C12 20.1495 14.3505 22.5 17.25 22.5Z" stroke="#008080" stroke-width="3" stroke-linecap="round" stroke-linejoin="round"/>
</svg>
