<svg width="53" height="42" viewBox="0 0 53 42" fill="none" xmlns="http://www.w3.org/2000/svg">
<path d="M25.9023 0.416992L50.9023 20.417" stroke="white"/>
<path d="M0.294922 19.4038L26.2949 0.403809" stroke="white"/>
<path d="M23.5979 38.1275C22.7446 38.1275 21.9019 37.9995 21.0699 37.7435C20.2593 37.4662 19.3313 36.8049 18.2859 35.7595L15.9819 33.4555C15.0433 32.4955 14.0086 31.7915 12.8779 31.3435C11.7686 30.8955 10.3713 30.6715 8.6859 30.6715H7.6939V37.8075H3.4699V21.5515L3.1499 18.9595H17.3259C18.6913 18.9595 19.7579 19.1408 20.5259 19.5035C21.3153 19.8662 21.8913 20.3462 22.2539 20.9435C22.6379 21.5195 22.8833 22.1382 22.9899 22.7995C23.0966 23.4608 23.1499 24.0902 23.1499 24.6875V25.2955C23.1499 25.7648 23.0859 26.2875 22.9579 26.8635C22.8299 27.4395 22.5846 28.0048 22.2219 28.5595C21.8593 29.1142 21.3366 29.5835 20.6539 29.9675C19.9926 30.3515 19.1179 30.5755 18.0299 30.6395C18.3073 30.7889 18.6593 31.0235 19.0859 31.3435C19.5126 31.6422 19.9499 31.9729 20.3979 32.3355C20.8673 32.6982 21.2939 33.0289 21.6779 33.3275C22.0619 33.6262 22.3606 33.8395 22.5739 33.9675C23.3419 34.4155 24.0246 34.7249 24.6219 34.8955C25.2193 35.0662 25.7099 35.1622 26.0939 35.1835C26.4779 35.2049 26.7019 35.2155 26.7659 35.2155L26.1259 37.8075C25.9339 37.8715 25.6139 37.9355 25.1659 37.9995C24.7179 38.0849 24.1953 38.1275 23.5979 38.1275ZM12.4939 27.7595C13.3046 27.7595 14.0299 27.7489 14.6699 27.7275C15.3099 27.6849 15.8859 27.6422 16.3979 27.5995C17.3366 27.4929 17.9873 27.2369 18.3499 26.8315C18.7339 26.4049 18.9259 25.8609 18.9259 25.1995V24.4635C18.9259 23.7808 18.7446 23.2048 18.3819 22.7355C18.0193 22.2662 17.3686 22.0315 16.4299 22.0315H7.6939V27.5995C8.63257 27.6635 9.49657 27.7062 10.2859 27.7275C11.0753 27.7489 11.8113 27.7595 12.4939 27.7595Z" fill="#008080"/>
<path d="M29.6499 37.8075V18.9595H43.5699C45.5753 18.9595 47.0366 19.3648 47.9539 20.1755C48.8713 20.9649 49.3299 21.9249 49.3299 23.0555V24.0155C49.3299 24.8902 49.1379 25.6155 48.7539 26.1915C48.3913 26.7462 47.9966 27.1409 47.5699 27.3755C48.5086 27.6742 49.2553 28.1969 49.8099 28.9435C50.3646 29.6689 50.6419 30.6289 50.6419 31.8235V32.3995C50.6419 33.0395 50.5673 33.6795 50.4179 34.3195C50.2686 34.9595 49.9806 35.5462 49.5539 36.0795C49.1486 36.5915 48.5619 37.0075 47.7939 37.3275C47.0473 37.6475 46.0659 37.8075 44.8499 37.8075H29.6499ZM33.8739 26.5115H42.8979C43.6446 26.5328 44.1993 26.3515 44.5619 25.9675C44.9246 25.5622 45.1059 25.0608 45.1059 24.4635V24.1435C45.1059 23.6528 44.9353 23.1835 44.5939 22.7355C44.2526 22.2662 43.6126 22.0315 42.6739 22.0315H33.8739V26.5115ZM33.8739 34.7355H43.9539C44.7646 34.7355 45.3726 34.5329 45.7779 34.1275C46.2046 33.7222 46.4179 33.1675 46.4179 32.4635V31.8875C46.4179 31.2262 46.1726 30.6929 45.6819 30.2875C45.1913 29.8608 44.3806 29.6475 43.2499 29.6475H33.8739V34.7355Z" fill="white"/>
<mask id="mask0_2289_1048" style="mask-type:luminance" maskUnits="userSpaceOnUse" x="1" y="17" width="52" height="23">
<path d="M52.5898 17.8076H1.58984V39.8076H52.5898V17.8076Z" fill="white"/>
<path d="M29.6499 37.8075V18.9595H43.5699C45.5753 18.9595 47.0366 19.3648 47.9539 20.1755C48.8713 20.9649 49.3299 21.9249 49.3299 23.0555V24.0155C49.3299 24.8902 49.1379 25.6155 48.7539 26.1915C48.3913 26.7462 47.9966 27.1409 47.5699 27.3755C48.5086 27.6742 49.2553 28.1969 49.8099 28.9435C50.3646 29.6689 50.6419 30.6289 50.6419 31.8235V32.3995C50.6419 33.0395 50.5673 33.6795 50.4179 34.3195C50.2686 34.9595 49.9806 35.5462 49.5539 36.0795C49.1486 36.5915 48.5619 37.0075 47.7939 37.3275C47.0473 37.6475 46.0659 37.8075 44.8499 37.8075H29.6499ZM33.8739 26.5115H42.8979C43.6446 26.5328 44.1993 26.3515 44.5619 25.9675C44.9246 25.5622 45.1059 25.0608 45.1059 24.4635V24.1435C45.1059 23.6528 44.9353 23.1835 44.5939 22.7355C44.2526 22.2662 43.6126 22.0315 42.6739 22.0315H33.8739V26.5115ZM33.8739 34.7355H43.9539C44.7646 34.7355 45.3726 34.5329 45.7779 34.1275C46.2046 33.7222 46.4179 33.1675 46.4179 32.4635V31.8875C46.4179 31.2262 46.1726 30.6929 45.6819 30.2875C45.1913 29.8608 44.3806 29.6475 43.2499 29.6475H33.8739V34.7355Z" fill="black"/>
</mask>
<g mask="url(#mask0_2289_1048)">
<path d="M21.07 37.7435L20.7464 38.6897L20.7611 38.6947L20.776 38.6993L21.07 37.7435ZM15.982 33.4555L15.267 34.1547L15.2749 34.1626L15.982 33.4555ZM12.878 31.3435L12.5036 32.2708L12.5097 32.2732L12.878 31.3435ZM7.69408 30.6715V29.6715H6.69408V30.6715H7.69408ZM7.69408 37.8075V38.8075H8.69408V37.8075H7.69408ZM3.47008 37.8075H2.47008V38.8075H3.47008V37.8075ZM3.47008 21.5515H4.47008V21.49L4.46255 21.429L3.47008 21.5515ZM3.15008 18.9595V17.9595H2.01904L2.15762 19.082L3.15008 18.9595ZM20.526 19.5035L20.099 20.4078L20.1085 20.4122L20.526 19.5035ZM22.254 20.9435L21.3993 21.4625L21.4102 21.4806L21.422 21.4982L22.254 20.9435ZM20.654 29.9675L20.1637 29.0959L20.1519 29.1027L20.654 29.9675ZM18.03 30.6395L17.9713 29.6412L14.4514 29.8483L17.5559 31.52L18.03 30.6395ZM19.086 31.3435L18.486 32.1435L18.4992 32.1534L18.5126 32.1627L19.086 31.3435ZM20.398 32.3355L19.7688 33.1128L19.7776 33.1199L19.7866 33.1268L20.398 32.3355ZM22.574 33.9675L22.0595 34.8251L22.0702 34.8313L22.574 33.9675ZM26.766 35.2155L27.7369 35.4552L28.043 34.2155H26.766V35.2155ZM26.126 37.8075L26.4423 38.7562L26.9648 38.582L27.0969 38.0472L26.126 37.8075ZM25.166 37.9995L25.0246 37.0096L25.0017 37.0128L24.9789 37.0172L25.166 37.9995ZM14.67 27.7275L14.7034 28.727L14.72 28.7264L14.7366 28.7253L14.67 27.7275ZM16.398 27.5995L16.4811 28.5961L16.496 28.5948L16.511 28.5931L16.398 27.5995ZM18.35 26.8315L17.6067 26.1625L17.6048 26.1647L18.35 26.8315ZM7.69408 22.0315V21.0315H6.69408V22.0315H7.69408ZM7.69408 27.5995H6.69408V28.5337L7.62606 28.5972L7.69408 27.5995ZM23.598 38.1275V37.1275C22.8464 37.1275 22.1028 37.015 21.3641 36.7877L21.07 37.7435L20.776 38.6993C21.7013 38.984 22.643 39.1275 23.598 39.1275V38.1275ZM21.07 37.7435L21.3937 36.7974C20.7966 36.5931 19.9981 36.0574 18.9932 35.0524L18.286 35.7595L17.5789 36.4666C18.6646 37.5523 19.7221 38.3393 20.7464 38.6897L21.07 37.7435ZM18.286 35.7595L18.9932 35.0524L16.6892 32.7484L15.982 33.4555L15.2749 34.1626L17.5789 36.4666L18.286 35.7595ZM15.982 33.4555L16.6971 32.7564C15.6706 31.7066 14.5205 30.9187 13.2464 30.4138L12.878 31.3435L12.5097 32.2732C13.4969 32.6644 14.4162 33.2846 15.267 34.1547L15.982 33.4555ZM12.878 31.3435L13.2525 30.4163C11.9862 29.9049 10.4512 29.6715 8.68608 29.6715V30.6715V31.6715C10.2916 31.6715 11.5512 31.8862 12.5036 32.2708L12.878 31.3435ZM8.68608 30.6715V29.6715H7.69408V30.6715V31.6715H8.68608V30.6715ZM7.69408 30.6715H6.69408V37.8075H7.69408H8.69408V30.6715H7.69408ZM7.69408 37.8075V36.8075H3.47008V37.8075V38.8075H7.69408V37.8075ZM3.47008 37.8075H4.47008V21.5515H3.47008H2.47008V37.8075H3.47008ZM3.47008 21.5515L4.46255 21.429L4.14255 18.837L3.15008 18.9595L2.15762 19.082L2.47762 21.674L3.47008 21.5515ZM3.15008 18.9595V19.9595H17.326V18.9595V17.9595H3.15008V18.9595ZM17.326 18.9595V19.9595C18.6233 19.9595 19.5215 20.135 20.099 20.4078L20.526 19.5035L20.9531 18.5993C19.9946 18.1466 18.7594 17.9595 17.326 17.9595V18.9595ZM20.526 19.5035L20.1085 20.4122C20.7608 20.7119 21.1629 21.0732 21.3993 21.4625L22.254 20.9435L23.1088 20.4245C22.6199 19.6192 21.87 19.0205 20.9435 18.5948L20.526 19.5035ZM22.254 20.9435L21.422 21.4982C21.7293 21.9591 21.9197 22.4436 22.0028 22.9587L22.99 22.7995L23.9773 22.6403C23.847 21.8328 23.5468 21.0799 23.0861 20.3888L22.254 20.9435ZM22.99 22.7995L22.0028 22.9587C22.102 23.5737 22.15 24.1495 22.15 24.6875H23.15H24.15C24.15 24.0309 24.0914 23.348 23.9773 22.6403L22.99 22.7995ZM23.15 24.6875H22.15V25.2955H23.15H24.15V24.6875H23.15ZM23.15 25.2955H22.15C22.15 25.6761 22.0979 26.1245 21.9819 26.6466L22.958 26.8635L23.9342 27.0804C24.0742 26.4505 24.15 25.8536 24.15 25.2955H23.15ZM22.958 26.8635L21.9819 26.6466C21.883 27.0914 21.6899 27.5461 21.3851 28.0123L22.222 28.5595L23.059 29.1068C23.4795 28.4636 23.7771 27.7876 23.9342 27.0804L22.958 26.8635ZM22.222 28.5595L21.3851 28.0123C21.1249 28.4101 20.7318 28.7764 20.1637 29.0959L20.654 29.9675L21.1443 30.8391C21.9415 30.3907 22.5938 29.8182 23.059 29.1068L22.222 28.5595ZM20.654 29.9675L20.1519 29.1027C19.671 29.382 18.9651 29.5828 17.9713 29.6412L18.03 30.6395L18.0888 31.6378C19.2709 31.5683 20.3144 31.3211 21.1562 30.8323L20.654 29.9675ZM18.03 30.6395L17.5559 31.52C17.7696 31.635 18.076 31.836 18.486 32.1435L19.086 31.3435L19.686 30.5435C19.2428 30.211 18.8452 29.9427 18.5041 29.759L18.03 30.6395ZM19.086 31.3435L18.5126 32.1627C18.9183 32.4468 19.3371 32.7632 19.7688 33.1128L20.398 32.3355L21.0272 31.5583C20.563 31.1825 20.1071 30.8376 19.6595 30.5243L19.086 31.3435ZM20.398 32.3355L19.7866 33.1268C20.2553 33.489 20.6811 33.819 21.0641 34.1169L21.678 33.3275L22.292 32.5382C21.907 32.2387 21.4795 31.9074 21.0095 31.5442L20.398 32.3355ZM21.678 33.3275L21.0641 34.1169C21.4559 34.4216 21.793 34.6652 22.0595 34.8251L22.574 33.9675L23.0885 33.11C22.9284 33.014 22.6681 32.8307 22.292 32.5382L21.678 33.3275ZM22.574 33.9675L22.0702 34.8313C22.8821 35.3049 23.6436 35.656 24.3473 35.857L24.622 34.8955L24.8968 33.934C24.4058 33.7937 23.802 33.5261 23.0779 33.1037L22.574 33.9675ZM24.622 34.8955L24.3473 35.857C24.9782 36.0373 25.5492 36.1548 26.0386 36.182L26.094 35.1835L26.1495 34.1851C25.8708 34.1696 25.4605 34.0951 24.8968 33.934L24.622 34.8955ZM26.094 35.1835L26.0386 36.182C26.4052 36.2023 26.6665 36.2155 26.766 36.2155V35.2155V34.2155C26.7701 34.2155 26.76 34.2155 26.7251 34.2142C26.6939 34.213 26.6518 34.2112 26.5976 34.2086C26.4895 34.2035 26.3405 34.1957 26.1495 34.1851L26.094 35.1835ZM26.766 35.2155L25.7952 34.9758L25.1552 37.5678L26.126 37.8075L27.0969 38.0472L27.7369 35.4552L26.766 35.2155ZM26.126 37.8075L25.8098 36.8588C25.7101 36.8921 25.4676 36.9463 25.0246 37.0096L25.166 37.9995L25.3075 38.9895C25.7605 38.9247 26.158 38.851 26.4423 38.7562L26.126 37.8075ZM25.166 37.9995L24.9789 37.0172C24.6081 37.0878 24.1507 37.1275 23.598 37.1275V38.1275V39.1275C24.2401 39.1275 24.8279 39.0819 25.3532 38.9819L25.166 37.9995ZM12.494 27.7595V28.7595C13.3131 28.7595 14.0498 28.7487 14.7034 28.727L14.67 27.7275L14.6367 26.7281C14.0103 26.749 13.2964 26.7595 12.494 26.7595V27.7595ZM14.67 27.7275L14.7366 28.7253C15.3808 28.6824 15.9624 28.6393 16.4811 28.5961L16.398 27.5995L16.315 26.603C15.8097 26.6451 15.2393 26.6873 14.6035 26.7297L14.67 27.7275ZM16.398 27.5995L16.511 28.5931C17.5293 28.4774 18.485 28.1803 19.0953 27.4983L18.35 26.8315L17.6048 26.1647C17.4897 26.2934 17.1441 26.5083 16.2851 26.6059L16.398 27.5995ZM18.35 26.8315L19.0933 27.5005C19.6676 26.8624 19.926 26.0678 19.926 25.1995H18.926H17.926C17.926 25.6539 17.8004 25.9472 17.6067 26.1625L18.35 26.8315ZM18.926 25.1995H19.926V24.4635H18.926H17.926V25.1995H18.926ZM18.926 24.4635H19.926C19.926 23.5945 19.6912 22.7943 19.1733 22.1241L18.382 22.7355L17.5908 23.347C17.7982 23.6154 17.926 23.9672 17.926 24.4635H18.926ZM18.382 22.7355L19.1733 22.1241C18.5325 21.2948 17.4965 21.0315 16.43 21.0315V22.0315V23.0315C17.2409 23.0315 17.5062 23.2375 17.5908 23.347L18.382 22.7355ZM16.43 22.0315V21.0315H7.69408V22.0315V23.0315H16.43V22.0315ZM7.69408 22.0315H6.69408V27.5995H7.69408H8.69408V22.0315H7.69408ZM7.69408 27.5995L7.62606 28.5972C8.57589 28.662 9.45377 28.7054 10.259 28.7272L10.286 27.7275L10.3131 26.7279C9.53974 26.707 8.68961 26.6651 7.76211 26.6018L7.69408 27.5995ZM10.286 27.7275L10.259 28.7272C11.056 28.7487 11.8011 28.7595 12.494 28.7595V27.7595V26.7595C11.8216 26.7595 11.0947 26.749 10.3131 26.7279L10.286 27.7275ZM29.65 37.8075H28.65V38.8075H29.65V37.8075ZM29.65 18.9595V17.9595H28.65V18.9595H29.65ZM47.954 20.1755L47.2918 20.9249L47.3018 20.9335L47.954 20.1755ZM48.754 26.1915L47.922 25.6368L47.9171 25.6443L48.754 26.1915ZM47.57 27.3755L47.0881 26.4993L45.0468 27.6221L47.2668 28.3284L47.57 27.3755ZM49.81 28.9435L49.0072 29.5399L49.0157 29.551L49.81 28.9435ZM49.554 36.0795L48.7732 35.4548L48.77 35.4588L49.554 36.0795ZM47.794 37.3275L47.4094 36.4044L47.4001 36.4084L47.794 37.3275ZM33.874 26.5115H32.874V27.5115H33.874V26.5115ZM42.898 26.5115L42.9266 25.5119L42.9123 25.5115H42.898V26.5115ZM44.562 25.9675L45.2891 26.6541L45.2983 26.6443L45.3073 26.6343L44.562 25.9675ZM44.594 22.7355L43.7853 23.3237L43.7919 23.3327L43.7986 23.3416L44.594 22.7355ZM33.874 22.0315V21.0315H32.874V22.0315H33.874ZM33.874 34.7355H32.874V35.7355H33.874V34.7355ZM45.778 34.1275L45.0893 33.4025L45.08 33.4113L45.0709 33.4204L45.778 34.1275ZM45.682 30.2875L45.0259 31.0421L45.0354 31.0504L45.0452 31.0585L45.682 30.2875ZM33.874 29.6475V28.6475H32.874V29.6475H33.874ZM29.65 37.8075H30.65V18.9595H29.65H28.65V37.8075H29.65ZM29.65 18.9595V19.9595H43.57V18.9595V17.9595H29.65V18.9595ZM43.57 18.9595V19.9595C45.4771 19.9595 46.6429 20.3515 47.2918 20.9249L47.954 20.1755L48.6162 19.4262C47.4305 18.3783 45.6736 17.9595 43.57 17.9595V18.9595ZM47.954 20.1755L47.3018 20.9335C48.016 21.5481 48.33 22.2386 48.33 23.0555H49.33H50.33C50.33 21.6111 49.7268 20.3816 48.6063 19.4175L47.954 20.1755ZM49.33 23.0555H48.33V24.0155H49.33H50.33V23.0555H49.33ZM49.33 24.0155H48.33C48.33 24.7447 48.1708 25.2635 47.922 25.6368L48.754 26.1915L49.5861 26.7462C50.1052 25.9675 50.33 25.0357 50.33 24.0155H49.33ZM48.754 26.1915L47.9171 25.6443C47.6132 26.109 47.3289 26.3669 47.0881 26.4993L47.57 27.3755L48.052 28.2517C48.6645 27.9148 49.1696 27.3833 49.591 26.7388L48.754 26.1915ZM47.57 27.3755L47.2668 28.3284C48.0182 28.5675 48.5852 28.9718 49.0072 29.5399L49.81 28.9435L50.6128 28.3472C49.9255 27.422 48.9992 26.7808 47.8732 26.4226L47.57 27.3755ZM49.81 28.9435L49.0157 29.551C49.4009 30.0547 49.642 30.7806 49.642 31.8235H50.642H51.642C51.642 30.4771 51.3285 29.283 50.6044 28.3361L49.81 28.9435ZM50.642 31.8235H49.642V32.3995H50.642H51.642V31.8235H50.642ZM50.642 32.3995H49.642C49.642 32.961 49.5766 33.5248 49.4442 34.0923L50.418 34.3195L51.3919 34.5467C51.5581 33.8343 51.642 33.118 51.642 32.3995H50.642ZM50.418 34.3195L49.4442 34.0923C49.3301 34.5813 49.1104 35.0332 48.7732 35.4548L49.554 36.0795L50.3349 36.7042C50.851 36.0591 51.2073 35.3377 51.3919 34.5467L50.418 34.3195ZM49.554 36.0795L48.77 35.4588C48.495 35.8061 48.0628 36.1322 47.4094 36.4044L47.794 37.3275L48.1787 38.2506C49.0613 37.8828 49.8024 37.3769 50.3381 36.7002L49.554 36.0795ZM47.794 37.3275L47.4001 36.4084C46.8239 36.6553 45.9917 36.8075 44.85 36.8075V37.8075V38.8075C46.1404 38.8075 47.2708 38.6397 48.188 38.2467L47.794 37.3275ZM44.85 37.8075V36.8075H29.65V37.8075V38.8075H44.85V37.8075ZM33.874 26.5115V27.5115H42.898V26.5115V25.5115H33.874V26.5115ZM42.898 26.5115L42.8695 27.5111C43.7796 27.5371 44.6603 27.3198 45.2891 26.6541L44.562 25.9675L43.835 25.2809C43.7384 25.3832 43.5099 25.5286 42.9266 25.5119L42.898 26.5115ZM44.562 25.9675L45.3073 26.6343C45.8506 26.027 46.106 25.2808 46.106 24.4635H45.106H44.106C44.106 24.8409 43.9988 25.0973 43.8168 25.3007L44.562 25.9675ZM45.106 24.4635H46.106V24.1435H45.106H44.106V24.4635H45.106ZM45.106 24.1435H46.106C46.106 23.4023 45.843 22.7247 45.3895 22.1295L44.594 22.7355L43.7986 23.3416C44.0277 23.6423 44.106 23.9034 44.106 24.1435H45.106ZM44.594 22.7355L45.4028 22.1473C44.7806 21.2919 43.7332 21.0315 42.674 21.0315V22.0315V23.0315C43.4922 23.0315 43.7248 23.2405 43.7853 23.3237L44.594 22.7355ZM42.674 22.0315V21.0315H33.874V22.0315V23.0315H42.674V22.0315ZM33.874 22.0315H32.874V26.5115H33.874H34.874V22.0315H33.874ZM33.874 34.7355V35.7355H43.954V34.7355V33.7355H33.874V34.7355ZM43.954 34.7355V35.7355C44.9189 35.7355 45.8261 35.4936 46.4852 34.8346L45.778 34.1275L45.0709 33.4204C44.9193 33.5721 44.6106 33.7355 43.954 33.7355V34.7355ZM45.778 34.1275L46.4668 34.8525C47.1307 34.2218 47.418 33.3835 47.418 32.4635H46.418H45.418C45.418 32.9515 45.2787 33.2226 45.0893 33.4025L45.778 34.1275ZM46.418 32.4635H47.418V31.8875H46.418H45.418V32.4635H46.418ZM46.418 31.8875H47.418C47.418 30.9413 47.0497 30.1203 46.3189 29.5166L45.682 30.2875L45.0452 31.0585C45.2957 31.2654 45.418 31.511 45.418 31.8875H46.418ZM45.682 30.2875L46.3382 29.5329C45.5723 28.8669 44.4598 28.6475 43.25 28.6475V29.6475V30.6475C44.3017 30.6475 44.8105 30.8548 45.0259 31.0421L45.682 30.2875ZM43.25 29.6475V28.6475H33.874V29.6475V30.6475H43.25V29.6475ZM33.874 29.6475H32.874V34.7355H33.874H34.874V29.6475H33.874Z" fill="white"/>
</g>
<mask id="path-8-outside-1_2289_1048" maskUnits="userSpaceOnUse" x="2" y="18" width="51" height="22" fill="black">
<rect fill="white" x="2" y="18" width="51" height="22"/>
<path d="M24.008 38.32C23.1547 38.32 22.312 38.192 21.48 37.936C20.6693 37.6587 19.7413 36.9973 18.696 35.952L16.392 33.648C15.4533 32.688 14.4187 31.984 13.288 31.536C12.1787 31.088 10.7813 30.864 9.096 30.864H8.104V38H3.88V21.744L3.56 19.152H17.736C19.1013 19.152 20.168 19.3333 20.936 19.696C21.7253 20.0587 22.3013 20.5387 22.664 21.136C23.048 21.712 23.2933 22.3307 23.4 22.992C23.5067 23.6533 23.56 24.2827 23.56 24.88V25.488C23.56 25.9573 23.496 26.48 23.368 27.056C23.24 27.632 22.9947 28.1973 22.632 28.752C22.2693 29.3067 21.7467 29.776 21.064 30.16C20.4027 30.544 19.528 30.768 18.44 30.832C18.7173 30.9813 19.0693 31.216 19.496 31.536C19.9227 31.8347 20.36 32.1653 20.808 32.528C21.2773 32.8907 21.704 33.2213 22.088 33.52C22.472 33.8187 22.7707 34.032 22.984 34.16C23.752 34.608 24.4347 34.9173 25.032 35.088C25.6293 35.2587 26.12 35.3547 26.504 35.376C26.888 35.3973 27.112 35.408 27.176 35.408L26.536 38C26.344 38.064 26.024 38.128 25.576 38.192C25.128 38.2773 24.6053 38.32 24.008 38.32ZM12.904 27.952C13.7147 27.952 14.44 27.9413 15.08 27.92C15.72 27.8773 16.296 27.8347 16.808 27.792C17.7467 27.6853 18.3973 27.4293 18.76 27.024C19.144 26.5973 19.336 26.0533 19.336 25.392V24.656C19.336 23.9733 19.1547 23.3973 18.792 22.928C18.4293 22.4587 17.7787 22.224 16.84 22.224H8.104V27.792C9.04267 27.856 9.90667 27.8987 10.696 27.92C11.4853 27.9413 12.2213 27.952 12.904 27.952ZM30.06 38V19.152H43.98C45.9853 19.152 47.4467 19.5573 48.364 20.368C49.2813 21.1573 49.74 22.1173 49.74 23.248V24.208C49.74 25.0827 49.548 25.808 49.164 26.384C48.8013 26.9387 48.4067 27.3333 47.98 27.568C48.9187 27.8667 49.6653 28.3893 50.22 29.136C50.7747 29.8613 51.052 30.8213 51.052 32.016V32.592C51.052 33.232 50.9773 33.872 50.828 34.512C50.6787 35.152 50.3907 35.7387 49.964 36.272C49.5587 36.784 48.972 37.2 48.204 37.52C47.4573 37.84 46.476 38 45.26 38H30.06ZM34.284 26.704H43.308C44.0547 26.7253 44.6093 26.544 44.972 26.16C45.3347 25.7547 45.516 25.2533 45.516 24.656V24.336C45.516 23.8453 45.3453 23.376 45.004 22.928C44.6627 22.4587 44.0227 22.224 43.084 22.224H34.284V26.704ZM34.284 34.928H44.364C45.1747 34.928 45.7827 34.7253 46.188 34.32C46.6147 33.9147 46.828 33.36 46.828 32.656V32.08C46.828 31.4187 46.5827 30.8853 46.092 30.48C45.6013 30.0533 44.7907 29.84 43.66 29.84H34.284V34.928Z"/>
</mask>
<path d="M24.008 38.32C23.1547 38.32 22.312 38.192 21.48 37.936C20.6693 37.6587 19.7413 36.9973 18.696 35.952L16.392 33.648C15.4533 32.688 14.4187 31.984 13.288 31.536C12.1787 31.088 10.7813 30.864 9.096 30.864H8.104V38H3.88V21.744L3.56 19.152H17.736C19.1013 19.152 20.168 19.3333 20.936 19.696C21.7253 20.0587 22.3013 20.5387 22.664 21.136C23.048 21.712 23.2933 22.3307 23.4 22.992C23.5067 23.6533 23.56 24.2827 23.56 24.88V25.488C23.56 25.9573 23.496 26.48 23.368 27.056C23.24 27.632 22.9947 28.1973 22.632 28.752C22.2693 29.3067 21.7467 29.776 21.064 30.16C20.4027 30.544 19.528 30.768 18.44 30.832C18.7173 30.9813 19.0693 31.216 19.496 31.536C19.9227 31.8347 20.36 32.1653 20.808 32.528C21.2773 32.8907 21.704 33.2213 22.088 33.52C22.472 33.8187 22.7707 34.032 22.984 34.16C23.752 34.608 24.4347 34.9173 25.032 35.088C25.6293 35.2587 26.12 35.3547 26.504 35.376C26.888 35.3973 27.112 35.408 27.176 35.408L26.536 38C26.344 38.064 26.024 38.128 25.576 38.192C25.128 38.2773 24.6053 38.32 24.008 38.32ZM12.904 27.952C13.7147 27.952 14.44 27.9413 15.08 27.92C15.72 27.8773 16.296 27.8347 16.808 27.792C17.7467 27.6853 18.3973 27.4293 18.76 27.024C19.144 26.5973 19.336 26.0533 19.336 25.392V24.656C19.336 23.9733 19.1547 23.3973 18.792 22.928C18.4293 22.4587 17.7787 22.224 16.84 22.224H8.104V27.792C9.04267 27.856 9.90667 27.8987 10.696 27.92C11.4853 27.9413 12.2213 27.952 12.904 27.952ZM30.06 38V19.152H43.98C45.9853 19.152 47.4467 19.5573 48.364 20.368C49.2813 21.1573 49.74 22.1173 49.74 23.248V24.208C49.74 25.0827 49.548 25.808 49.164 26.384C48.8013 26.9387 48.4067 27.3333 47.98 27.568C48.9187 27.8667 49.6653 28.3893 50.22 29.136C50.7747 29.8613 51.052 30.8213 51.052 32.016V32.592C51.052 33.232 50.9773 33.872 50.828 34.512C50.6787 35.152 50.3907 35.7387 49.964 36.272C49.5587 36.784 48.972 37.2 48.204 37.52C47.4573 37.84 46.476 38 45.26 38H30.06ZM34.284 26.704H43.308C44.0547 26.7253 44.6093 26.544 44.972 26.16C45.3347 25.7547 45.516 25.2533 45.516 24.656V24.336C45.516 23.8453 45.3453 23.376 45.004 22.928C44.6627 22.4587 44.0227 22.224 43.084 22.224H34.284V26.704ZM34.284 34.928H44.364C45.1747 34.928 45.7827 34.7253 46.188 34.32C46.6147 33.9147 46.828 33.36 46.828 32.656V32.08C46.828 31.4187 46.5827 30.8853 46.092 30.48C45.6013 30.0533 44.7907 29.84 43.66 29.84H34.284V34.928Z" fill="white"/>
<path d="M21.48 37.936L21.1563 38.8822L21.171 38.8872L21.1859 38.8918L21.48 37.936ZM18.696 35.952L17.9889 36.6591L18.696 35.952ZM16.392 33.648L15.6769 34.3472L15.6849 34.3551L16.392 33.648ZM13.288 31.536L12.9135 32.4633L12.9196 32.4657L13.288 31.536ZM8.104 30.864V29.864H7.104V30.864H8.104ZM8.104 38V39H9.104V38H8.104ZM3.88 38H2.88V39H3.88V38ZM3.88 21.744H4.88V21.6825L4.87247 21.6215L3.88 21.744ZM3.56 19.152V18.152H2.42895L2.56753 19.2745L3.56 19.152ZM20.936 19.696L20.509 20.6003L20.5185 20.6047L20.936 19.696ZM22.664 21.136L21.8092 21.655L21.8202 21.6731L21.832 21.6907L22.664 21.136ZM23.368 27.056L24.3442 27.2729V27.2729L23.368 27.056ZM22.632 28.752L23.469 29.2992L23.469 29.2992L22.632 28.752ZM21.064 30.16L20.5737 29.2883L20.5619 29.2952L21.064 30.16ZM18.44 30.832L18.3813 29.8337L14.8613 30.0408L17.9659 31.7125L18.44 30.832ZM19.496 31.536L18.896 32.336L18.9091 32.3458L18.9225 32.3552L19.496 31.536ZM20.808 32.528L20.1788 33.3052L20.1876 33.3124L20.1966 33.3193L20.808 32.528ZM22.088 33.52L21.4741 34.3094L22.088 33.52ZM22.984 34.16L22.4695 35.0176L22.4801 35.0238L22.984 34.16ZM27.176 35.408L28.1468 35.6477L28.4529 34.408H27.176V35.408ZM26.536 38L26.8522 38.9487L27.3748 38.7745L27.5068 38.2397L26.536 38ZM25.576 38.192L25.4346 37.2021L25.4116 37.2053L25.3889 37.2097L25.576 38.192ZM15.08 27.92L15.1133 28.9194L15.1299 28.9189L15.1465 28.9178L15.08 27.92ZM16.808 27.792L16.891 28.7885L16.906 28.7873L16.9209 28.7856L16.808 27.792ZM18.76 27.024L18.0167 26.355L18.0148 26.3572L18.76 27.024ZM18.792 22.928L19.5833 22.3166V22.3166L18.792 22.928ZM8.104 22.224V21.224H7.104V22.224H8.104ZM8.104 27.792H7.104V28.7261L8.03598 28.7897L8.104 27.792ZM10.696 27.92L10.723 26.9204H10.723L10.696 27.92ZM24.008 38.32V37.32C23.2564 37.32 22.5127 37.2075 21.7741 36.9802L21.48 37.936L21.1859 38.8918C22.1113 39.1765 23.053 39.32 24.008 39.32V38.32ZM21.48 37.936L21.8037 36.9898C21.2066 36.7856 20.4081 36.2499 19.4031 35.2449L18.696 35.952L17.9889 36.6591C19.0746 37.7448 20.1321 38.5318 21.1563 38.8822L21.48 37.936ZM18.696 35.952L19.4031 35.2449L17.0991 32.9409L16.392 33.648L15.6849 34.3551L17.9889 36.6591L18.696 35.952ZM16.392 33.648L17.107 32.9489C16.0805 31.8991 14.9305 31.1112 13.6564 30.6063L13.288 31.536L12.9196 32.4657C13.9069 32.8568 14.8261 33.4769 15.677 34.3471L16.392 33.648ZM13.288 31.536L13.6625 30.6088C12.3962 30.0974 10.8611 29.864 9.096 29.864V30.864V31.864C10.7016 31.864 11.9612 32.0786 12.9135 32.4632L13.288 31.536ZM9.096 30.864V29.864H8.104V30.864V31.864H9.096V30.864ZM8.104 30.864H7.104V38H8.104H9.104V30.864H8.104ZM8.104 38V37H3.88V38V39H8.104V38ZM3.88 38H4.88V21.744H3.88H2.88V38H3.88ZM3.88 21.744L4.87247 21.6215L4.55247 19.0295L3.56 19.152L2.56753 19.2745L2.88753 21.8665L3.88 21.744ZM3.56 19.152V20.152H17.736V19.152V18.152H3.56V19.152ZM17.736 19.152V20.152C19.0333 20.152 19.9315 20.3275 20.509 20.6002L20.936 19.696L21.363 18.7918C20.4045 18.3391 19.1694 18.152 17.736 18.152V19.152ZM20.936 19.696L20.5185 20.6047C21.1708 20.9044 21.5729 21.2657 21.8092 21.655L22.664 21.136L23.5188 20.617C23.0298 19.8117 22.2799 19.213 21.3535 18.7873L20.936 19.696ZM22.664 21.136L21.832 21.6907C22.1392 22.1516 22.3297 22.6361 22.4128 23.1512L23.4 22.992L24.3872 22.8328C24.257 22.0252 23.9568 21.2724 23.4961 20.5813L22.664 21.136ZM23.4 22.992L22.4128 23.1512C22.5119 23.7661 22.56 24.342 22.56 24.88H23.56H24.56C24.56 24.2234 24.5014 23.5405 24.3872 22.8328L23.4 22.992ZM23.56 24.88H22.56V25.488H23.56H24.56V24.88H23.56ZM23.56 25.488H22.56C22.56 25.8685 22.5078 26.317 22.3918 26.8391L23.368 27.056L24.3442 27.2729C24.4842 26.643 24.56 26.0461 24.56 25.488H23.56ZM23.368 27.056L22.3918 26.8391C22.293 27.2839 22.0998 27.7386 21.795 28.2048L22.632 28.752L23.469 29.2992C23.8895 28.6561 24.187 27.9801 24.3442 27.2729L23.368 27.056ZM22.632 28.752L21.795 28.2048C21.5349 28.6026 21.1419 28.9689 20.5737 29.2884L21.064 30.16L21.5543 31.0316C22.3515 30.5831 23.0038 30.0107 23.469 29.2992L22.632 28.752ZM21.064 30.16L20.5619 29.2952C20.0809 29.5745 19.3751 29.7753 18.3813 29.8337L18.44 30.832L18.4987 31.8303C19.6809 31.7607 20.7244 31.5135 21.5661 31.0248L21.064 30.16ZM18.44 30.832L17.9659 31.7125C18.1795 31.8275 18.486 32.0285 18.896 32.336L19.496 31.536L20.096 30.736C19.6527 30.4035 19.2551 30.1352 18.9141 29.9515L18.44 30.832ZM19.496 31.536L18.9225 32.3552C19.3283 32.6392 19.747 32.9557 20.1788 33.3052L20.808 32.528L21.4372 31.7508C20.973 31.375 20.5171 31.0301 20.0695 30.7168L19.496 31.536ZM20.808 32.528L20.1966 33.3193C20.6652 33.6814 21.091 34.0115 21.4741 34.3094L22.088 33.52L22.7019 32.7306C22.317 32.4312 21.8894 32.0999 21.4194 31.7367L20.808 32.528ZM22.088 33.52L21.4741 34.3094C21.8659 34.6141 22.2029 34.8576 22.4695 35.0175L22.984 34.16L23.4985 33.3025C23.3384 33.2064 23.0781 33.0232 22.7019 32.7306L22.088 33.52ZM22.984 34.16L22.4801 35.0238C23.292 35.4974 24.0536 35.8485 24.7573 36.0495L25.032 35.088L25.3067 34.1265C24.8158 33.9862 24.212 33.7186 23.4879 33.2962L22.984 34.16ZM25.032 35.088L24.7573 36.0495C25.3882 36.2298 25.9592 36.3473 26.4485 36.3745L26.504 35.376L26.5595 34.3775C26.2808 34.3621 25.8705 34.2876 25.3067 34.1265L25.032 35.088ZM26.504 35.376L26.4485 36.3745C26.8152 36.3948 27.0765 36.408 27.176 36.408V35.408V34.408C27.18 34.408 27.17 34.408 27.135 34.4067C27.1039 34.4055 27.0617 34.4037 27.0076 34.4011C26.8994 34.396 26.7504 34.3881 26.5595 34.3775L26.504 35.376ZM27.176 35.408L26.2052 35.1683L25.5652 37.7603L26.536 38L27.5068 38.2397L28.1468 35.6477L27.176 35.408ZM26.536 38L26.2198 37.0513C26.1201 37.0846 25.8775 37.1388 25.4346 37.2021L25.576 38.192L25.7174 39.1819C26.1705 39.1172 26.5679 39.0434 26.8522 38.9487L26.536 38ZM25.576 38.192L25.3889 37.2097C25.0181 37.2803 24.5606 37.32 24.008 37.32V38.32V39.32C24.65 39.32 25.2379 39.2744 25.7631 39.1743L25.576 38.192ZM12.904 27.952V28.952C13.723 28.952 14.4598 28.9412 15.1133 28.9194L15.08 27.92L15.0467 26.9206C14.4202 26.9414 13.7063 26.952 12.904 26.952V27.952ZM15.08 27.92L15.1465 28.9178C15.7907 28.8748 16.3724 28.8318 16.891 28.7885L16.808 27.792L16.725 26.7955C16.2196 26.8376 15.6493 26.8798 15.0135 26.9222L15.08 27.92ZM16.808 27.792L16.9209 28.7856C17.9393 28.6699 18.895 28.3728 19.5052 27.6908L18.76 27.024L18.0148 26.3572C17.8997 26.4858 17.5541 26.7008 16.6951 26.7984L16.808 27.792ZM18.76 27.024L19.5033 27.693C20.0775 27.0549 20.336 26.2603 20.336 25.392H19.336H18.336C18.336 25.8464 18.2105 26.1398 18.0167 26.355L18.76 27.024ZM19.336 25.392H20.336V24.656H19.336H18.336V25.392H19.336ZM19.336 24.656H20.336C20.336 23.787 20.1012 22.9868 19.5833 22.3166L18.792 22.928L18.0007 23.5394C18.2082 23.8079 18.336 24.1597 18.336 24.656H19.336ZM18.792 22.928L19.5833 22.3166C18.9425 21.4873 17.9064 21.224 16.84 21.224V22.224V23.224C17.6509 23.224 17.9162 23.43 18.0007 23.5394L18.792 22.928ZM16.84 22.224V21.224H8.104V22.224V23.224H16.84V22.224ZM8.104 22.224H7.104V27.792H8.104H9.104V22.224H8.104ZM8.104 27.792L8.03598 28.7897C8.98581 28.8544 9.86368 28.8979 10.669 28.9196L10.696 27.92L10.723 26.9204C9.94965 26.8995 9.09953 26.8576 8.17202 26.7943L8.104 27.792ZM10.696 27.92L10.669 28.9196C11.466 28.9412 12.2111 28.952 12.904 28.952V27.952V26.952C12.2316 26.952 11.5047 26.9415 10.723 26.9204L10.696 27.92ZM30.06 38H29.06V39H30.06V38ZM30.06 19.152V18.152H29.06V19.152H30.06ZM48.364 20.368L47.7017 21.1174L47.7118 21.126L48.364 20.368ZM49.164 26.384L48.3319 25.8293L48.327 25.8368L49.164 26.384ZM47.98 27.568L47.4981 26.6918L45.4567 27.8145L47.6768 28.5209L47.98 27.568ZM50.22 29.136L49.4172 29.7324L49.4256 29.7435L50.22 29.136ZM50.828 34.512L49.8542 34.2848V34.2848L50.828 34.512ZM49.964 36.272L49.1831 35.6473L49.18 35.6513L49.964 36.272ZM48.204 37.52L47.8194 36.5969L47.8101 36.6009L48.204 37.52ZM34.284 26.704H33.284V27.704H34.284V26.704ZM43.308 26.704L43.3366 25.7044L43.3223 25.704H43.308V26.704ZM44.972 26.16L45.699 26.8466L45.7083 26.8368L45.7172 26.8268L44.972 26.16ZM45.004 22.928L44.1953 23.5162L44.2018 23.5252L44.2086 23.534L45.004 22.928ZM34.284 22.224V21.224H33.284V22.224H34.284ZM34.284 34.928H33.284V35.928H34.284V34.928ZM46.188 34.32L45.4993 33.595L45.49 33.6038L45.4809 33.6129L46.188 34.32ZM46.092 30.48L45.4358 31.2346L45.4454 31.2429L45.4551 31.251L46.092 30.48ZM34.284 29.84V28.84H33.284V29.84H34.284ZM30.06 38H31.06V19.152H30.06H29.06V38H30.06ZM30.06 19.152V20.152H43.98V19.152V18.152H30.06V19.152ZM43.98 19.152V20.152C45.8871 20.152 47.0529 20.5439 47.7018 21.1173L48.364 20.368L49.0262 19.6187C47.8404 18.5708 46.0836 18.152 43.98 18.152V19.152ZM48.364 20.368L47.7118 21.126C48.4259 21.7405 48.74 22.4311 48.74 23.248H49.74H50.74C50.74 21.8036 50.1367 20.5741 49.0162 19.61L48.364 20.368ZM49.74 23.248H48.74V24.208H49.74H50.74V23.248H49.74ZM49.74 24.208H48.74C48.74 24.9372 48.5808 25.456 48.332 25.8293L49.164 26.384L49.9961 26.9387C50.5152 26.16 50.74 25.2282 50.74 24.208H49.74ZM49.164 26.384L48.327 25.8368C48.0231 26.3015 47.7389 26.5594 47.4981 26.6918L47.98 27.568L48.4619 28.4442C49.0745 28.1073 49.5795 27.5758 50.001 26.9312L49.164 26.384ZM47.98 27.568L47.6768 28.5209C48.4282 28.76 48.9952 29.1642 49.4173 29.7323L50.22 29.136L51.0227 28.5397C50.3355 27.6145 49.4091 26.9733 48.2832 26.6151L47.98 27.568ZM50.22 29.136L49.4256 29.7435C49.8109 30.2472 50.052 30.9731 50.052 32.016H51.052H52.052C52.052 30.6696 51.7385 29.4754 51.0144 28.5285L50.22 29.136ZM51.052 32.016H50.052V32.592H51.052H52.052V32.016H51.052ZM51.052 32.592H50.052C50.052 33.1535 49.9866 33.7173 49.8542 34.2848L50.828 34.512L51.8018 34.7392C51.9681 34.0267 52.052 33.3105 52.052 32.592H51.052ZM50.828 34.512L49.8542 34.2848C49.7401 34.7738 49.5204 35.2257 49.1831 35.6473L49.964 36.272L50.7449 36.8967C51.2609 36.2516 51.6173 35.5302 51.8018 34.7392L50.828 34.512ZM49.964 36.272L49.18 35.6513C48.905 35.9986 48.4728 36.3247 47.8194 36.5969L48.204 37.52L48.5886 38.4431C49.4712 38.0753 50.2123 37.5694 50.748 36.8927L49.964 36.272ZM48.204 37.52L47.8101 36.6009C47.2339 36.8478 46.4017 37 45.26 37V38V39C46.5504 39 47.6808 38.8322 48.5979 38.4391L48.204 37.52ZM45.26 38V37H30.06V38V39H45.26V38ZM34.284 26.704V27.704H43.308V26.704V25.704H34.284V26.704ZM43.308 26.704L43.2794 27.7036C44.1895 27.7296 45.0703 27.5123 45.699 26.8466L44.972 26.16L44.245 25.4734C44.1484 25.5757 43.9198 25.7211 43.3366 25.7044L43.308 26.704ZM44.972 26.16L45.7172 26.8268C46.2606 26.2195 46.516 25.4732 46.516 24.656H45.516H44.516C44.516 25.0334 44.4087 25.2898 44.2268 25.4932L44.972 26.16ZM45.516 24.656H46.516V24.336H45.516H44.516V24.656H45.516ZM45.516 24.336H46.516C46.516 23.5948 46.253 22.9172 45.7994 22.322L45.004 22.928L44.2086 23.534C44.4377 23.8348 44.516 24.0959 44.516 24.336H45.516ZM45.004 22.928L45.8127 22.3398C45.1906 21.4844 44.1432 21.224 43.084 21.224V22.224V23.224C43.9022 23.224 44.1347 23.4329 44.1953 23.5162L45.004 22.928ZM43.084 22.224V21.224H34.284V22.224V23.224H43.084V22.224ZM34.284 22.224H33.284V26.704H34.284H35.284V22.224H34.284ZM34.284 34.928V35.928H44.364V34.928V33.928H34.284V34.928ZM44.364 34.928V35.928C45.3288 35.928 46.2361 35.6861 46.8951 35.0271L46.188 34.32L45.4809 33.6129C45.3292 33.7645 45.0205 33.928 44.364 33.928V34.928ZM46.188 34.32L46.8768 35.045C47.5407 34.4143 47.828 33.576 47.828 32.656H46.828H45.828C45.828 33.144 45.6887 33.4151 45.4993 33.595L46.188 34.32ZM46.828 32.656H47.828V32.08H46.828H45.828V32.656H46.828ZM46.828 32.08H47.828C47.828 31.1338 47.4597 30.3127 46.7289 29.709L46.092 30.48L45.4551 31.251C45.7057 31.4579 45.828 31.7035 45.828 32.08H46.828ZM46.092 30.48L46.7482 29.7254C45.9822 29.0593 44.8697 28.84 43.66 28.84V29.84V30.84C44.7116 30.84 45.2205 31.0473 45.4358 31.2346L46.092 30.48ZM43.66 29.84V28.84H34.284V29.84V30.84H43.66V29.84ZM34.284 29.84H33.284V34.928H34.284H35.284V29.84H34.284Z" fill="white" mask="url(#path-8-outside-1_2289_1048)"/>
</svg>
