<svg width="194" height="193" viewBox="0 0 194 193" fill="none" xmlns="http://www.w3.org/2000/svg">
<path d="M100.211 22.6894L160.127 64.4989L181.217 64.4989L100.044 6.98101L100.211 22.6894Z" fill="white" stroke="white" stroke-width="4"/>
<path d="M95.4336 22.3532L35.3682 64.4995L13.7909 64.4991L95.6443 6.60883L95.4336 22.3532Z" fill="white" stroke="white" stroke-width="4"/>
<path d="M80.9482 70L95 83.6064V119.015L83.6152 128.04L81.7207 129.541L83.5508 131.121L95 141.004V189H82.7246V140.441H57.1484V119.414H82.7246V91.2422H57.1484V70H80.9482ZM47.335 70V91.2422H22.2754V119.414H47.335V140.441H22.2754V189H10V70H47.335Z" fill="white" stroke="white" stroke-width="4"/>
<path d="M180.783 70L192 83.4824V119.007L180.487 128.033L178.457 129.625L180.505 131.194L192 140.006V175.616L178.42 189H154.2V167.973H179.542V139.8H154.2V119.414H179.542V90.1719H154.2V70H180.783ZM143.8 70V90.1719H118.459V119.414H143.8V139.8H118.459V167.973H143.8V189H106V70H143.8Z" fill="white" stroke="white" stroke-width="4"/>
</svg>
