<svg width="38" height="38" viewBox="0 0 38 38" fill="none" xmlns="http://www.w3.org/2000/svg">
<path d="M36.3042 27.6102V32.8602C36.3062 33.3475 36.2063 33.83 36.0111 34.2765C35.8158 34.7231 35.5295 35.1239 35.1703 35.4534C34.8112 35.7829 34.3872 36.0338 33.9255 36.1899C33.4638 36.346 32.9746 36.404 32.4892 36.3602C27.1042 35.775 21.9315 33.9349 17.3867 30.9877C13.1584 28.3008 9.57354 24.716 6.8867 20.4877C3.92917 15.9223 2.08863 10.7244 1.5142 5.31517C1.47047 4.83124 1.52799 4.3435 1.68308 3.88301C1.83817 3.42252 2.08745 2.99938 2.41504 2.64051C2.74264 2.28164 3.14136 1.99491 3.58584 1.79858C4.03031 1.60226 4.5108 1.50063 4.9967 1.50017H10.2467C11.096 1.49181 11.9193 1.79256 12.5633 2.34635C13.2072 2.90015 13.6278 3.6692 13.7467 4.51017C13.9683 6.19029 14.3792 7.83994 14.9717 9.42767C15.2072 10.054 15.2581 10.7348 15.1185 11.3892C14.979 12.0436 14.6547 12.6444 14.1842 13.1202L11.9617 15.3427C14.4529 19.7239 18.0805 23.3514 22.4617 25.8427L24.6842 23.6202C25.16 23.1497 25.7607 22.8254 26.4152 22.6858C27.0696 22.5463 27.7503 22.5972 28.3767 22.8327C29.9644 23.4251 31.6141 23.8361 33.2942 24.0577C34.1443 24.1776 34.9207 24.6058 35.4756 25.2608C36.0306 25.9158 36.3255 26.7519 36.3042 27.6102Z" stroke="#008080" stroke-width="3" stroke-linecap="round" stroke-linejoin="round"/>
</svg>
