<svg width="31" height="30" viewBox="0 0 31 30" fill="none" xmlns="http://www.w3.org/2000/svg">
<g clip-path="url(#clip0_2208_1234)">
<path d="M22.1231 19.3949C23.9474 16.9175 24.7645 13.8459 24.4109 10.7946C24.0573 7.74333 22.5591 4.93745 20.216 2.93831C17.8728 0.939171 14.8576 -0.105799 11.7735 0.0124631C8.68946 0.130725 5.76398 1.4035 3.58237 3.57615C1.40076 5.74879 0.123918 8.66109 0.0072896 11.7304C-0.109338 14.7997 0.942849 17.7996 2.95335 20.13C4.96385 22.4604 7.78439 23.9494 10.8507 24.2992C13.917 24.6489 17.0029 23.8335 19.491 22.0162H19.4891C19.5444 22.0912 19.606 22.1631 19.6738 22.2318L26.9275 29.4506C27.2808 29.8024 27.76 30.0001 28.2598 30.0003C28.7596 30.0005 29.239 29.8031 29.5925 29.4515C29.9461 29.0999 30.1448 28.623 30.1449 28.1256C30.1451 27.6282 29.9468 27.1511 29.5935 26.7993L22.3398 19.5806C22.2724 19.5127 22.2 19.4519 22.1231 19.3949ZM22.6092 12.1874C22.6092 13.5417 22.3412 14.8827 21.8204 16.1339C21.2996 17.385 20.5363 18.5219 19.5741 19.4795C18.6119 20.4371 17.4695 21.1967 16.2123 21.715C14.9551 22.2332 13.6076 22.4999 12.2467 22.4999C10.8859 22.4999 9.53844 22.2332 8.28121 21.715C7.02398 21.1967 5.88164 20.4371 4.91939 19.4795C3.95715 18.5219 3.19386 17.385 2.6731 16.1339C2.15234 14.8827 1.88431 13.5417 1.88431 12.1874C1.88431 9.4524 2.97606 6.82937 4.9194 4.89541C6.86273 2.96144 9.49846 1.87494 12.2467 1.87494C14.995 1.87494 17.6308 2.96144 19.5741 4.89541C21.5174 6.82937 22.6092 9.4524 22.6092 12.1874Z" fill="white"/>
</g>
<defs>
<clipPath id="clip0_2208_1234">
<rect width="30.1453" height="30" fill="white"/>
</clipPath>
</defs>
</svg>
